<svg id="Layer_1" data-name="Layer 1" xmlns="http://www.w3.org/2000/svg" xmlns:xlink="http://www.w3.org/1999/xlink" viewBox="0 0 1498.9454 322.34783"><defs><style>.cls-1{fill:#282d3c;}.cls-2{fill:#fff;}.cls-3{fill:url(#linear-gradient);}.cls-4{fill:url(#linear-gradient-2);}</style><linearGradient id="linear-gradient" x1="83.76416" y1="86.59759" x2="227.27693" y2="230.11036" gradientUnits="userSpaceOnUse"><stop offset="0.28571" stop-color="#78bedb"/><stop offset="0.71693" stop-color="#447897"/></linearGradient><linearGradient id="linear-gradient-2" x1="100.41931" y1="186.11832" x2="211.15645" y2="186.11832" xlink:href="#linear-gradient"/></defs><path class="cls-1" d="M325.64827,241.127,358.78792,75.42538h32.32226L424.25081,241.127H396.22444l-6.5459-38.2544H360.83382l-6.751,38.2544Zm38.25391-57.48438h22.50293l-11.251-69.55371Z"/><path class="cls-1" d="M440.81819,241.127V75.42538h27.61719V241.127Z"/><path class="cls-1" d="M490.73323,241.127V75.42538h27.208v95.125l28.02637-47.665h30.07226L548.0135,170.34579,575.63069,241.127h-29.2539L526.73811,182.8243l-8.79687,13.09278v45.21Z"/><path class="cls-1" d="M606.51839,242.96835a23.03554,23.03554,0,0,1-13.8086-4.19385,27.43006,27.43006,0,0,1-8.89843-10.6377,30.805,30.805,0,0,1-3.06836-13.39941q0-11.04639,4.09082-18.61572a38.44513,38.44513,0,0,1,10.94433-12.6836,80.19547,80.19547,0,0,1,15.34278-8.89843q8.4873-3.783,17.49121-6.85352V157.4576a43.666,43.666,0,0,0-.71582-8.59179,9.51554,9.51554,0,0,0-2.76172-5.31885,8.59272,8.59272,0,0,0-5.93262-1.84082,9.40321,9.40321,0,0,0-5.83008,1.63623,8.92514,8.92514,0,0,0-3.06933,4.603,23.18235,23.18235,0,0,0-.91993,6.853l-.40918,7.16016-26.59472-1.023q.81591-20.45435,10.22851-30.17431,9.40723-9.71412,28.84473-9.7168,17.79785,0,25.98047,9.81933,8.17968,9.81885,8.18262,26.59375v54.62061q0,6.54931.30664,11.86475.30762,5.32251.81836,9.61474.50829,4.29639.92089,7.56934h-25.1621q-.61377-4.08984-1.43165-9.30811-.82031-5.21631-1.22753-7.67138a30.30669,30.30669,0,0,1-7.77344,12.99023Q616.33578,242.9686,606.51839,242.96835Zm10.22851-20.66162a9.47218,9.47218,0,0,0,4.91016-1.33008,20.53921,20.53921,0,0,0,4.09082-3.17041,27.22379,27.22379,0,0,0,2.86426-3.27344V181.59725q-4.708,2.6609-8.69434,5.31885a36.34714,36.34714,0,0,0-6.85351,5.83008,25.8435,25.8435,0,0,0-4.5,6.853,20.95023,20.95023,0,0,0-1.63672,8.59179q0,6.55005,2.55664,10.33106A8.24726,8.24726,0,0,0,616.7469,222.30673Z"/><path class="cls-1" d="M707.98518,242.96835q-14.93408,0-24.54785-7.97852-9.61816-7.97828-13.70605-23.3208l20.66113-7.97852q2.45508,9.61817,6.5459,14.729a12.981,12.981,0,0,0,10.63769,5.11426q4.91016,0,7.36524-2.45459a9.12574,9.12574,0,0,0,2.4541-6.751,14.56649,14.56649,0,0,0-2.96582-8.89844,63.82986,63.82986,0,0,0-10.126-9.92187l-14.32031-12.06983A72.72383,72.72383,0,0,1,677.40218,169.63q-4.80909-7.05835-4.80762-17.69531a28.61582,28.61582,0,0,1,16.46777-27.106,38.09375,38.09375,0,0,1,17.082-3.78418q14.729,0,23.52539,8.48926,8.79346,8.49169,11.45606,22.19629L722.3055,159.5035A42.10476,42.10476,0,0,0,719.3387,150.4a20.12011,20.12011,0,0,0-5.01172-6.853,10.87766,10.87766,0,0,0-7.36426-2.65918,9.07327,9.07327,0,0,0-6.85351,2.65918,9.338,9.338,0,0,0-2.55664,6.751,11.52458,11.52458,0,0,0,2.96582,7.15966,65.74523,65.74523,0,0,0,8.49023,8.3877L723.533,178.93758a110.17822,110.17822,0,0,1,9.001,8.79639,45.01252,45.01252,0,0,1,7.16016,10.53565,30.03744,30.03744,0,0,1,2.86328,13.39941q0,10.2312-4.60254,17.18359a29.00645,29.00645,0,0,1-12.47852,10.53565A41.82821,41.82821,0,0,1,707.98518,242.96835Z"/><path class="cls-1" d="M850.97737,243.37753q-14.93554,0-24.957-5.83057a36.70481,36.70481,0,0,1-15.13867-17.08154q-5.11524-11.24781-5.72754-27.61719L831.1346,187.734a80.04852,80.04852,0,0,0,2.35254,16.97949q1.94091,7.36451,5.93261,11.35352a14.23752,14.23752,0,0,0,10.53516,3.98926q7.36377,0,10.43262-4.398a19.0361,19.0361,0,0,0,3.06836-11.14942q0-10.84058-4.90918-17.79736a76.7875,76.7875,0,0,0-13.09278-13.91113l-20.86621-18.41113a62.61677,62.61677,0,0,1-14.01269-16.877q-5.21631-9.30615-5.2168-23.01416,0-19.63916,11.45606-30.27637Q828.26936,73.587,848.11311,73.58407q11.66163,0,19.43457,3.58008a30.94263,30.94263,0,0,1,12.377,9.92138,44.80727,44.80727,0,0,1,6.85254,14.42237,85.23811,85.23811,0,0,1,2.86425,17.08154l-25.77636,4.50049a88.3182,88.3182,0,0,0-1.73828-13.91065,19.37188,19.37188,0,0,0-4.70508-9.61474q-3.375-3.47607-9.92188-3.478-6.75145,0-10.33105,4.39844a16.7731,16.7731,0,0,0-3.58008,10.94433q0,8.39063,3.47851,13.8086a53.9018,53.9018,0,0,0,10.02344,11.14941l20.66211,18.20654a85.695,85.695,0,0,1,17.49024,20.1504q7.25976,11.55981,7.26269,27.92382a41.984,41.984,0,0,1-5.2168,21.07032,37.38351,37.38351,0,0,1-14.52441,14.42236Q863.45247,243.377,850.97737,243.37753Z"/><path class="cls-1" d="M944.2596,242.96835q-13.30078,0-21.68457-5.01221a29.709,29.709,0,0,1-12.376-14.729q-3.99024-9.71412-3.98926-23.42334V164.20858q0-14.11524,3.98926-23.73a29.09236,29.09236,0,0,1,12.47852-14.52441q8.48583-4.91016,21.582-4.90967,14.11523,0,21.99121,5.31885a29.01873,29.01873,0,0,1,11.251,15.44482q3.37645,10.12647,3.376,24.65088v16.77441H933.826v23.32129a32.7886,32.7886,0,0,0,1.126,9.41016,9.37291,9.37291,0,0,0,3.58008,5.31885,10.4235,10.4235,0,0,0,5.93164,1.63672,9.43417,9.43417,0,0,0,5.93262-1.73926,9.83564,9.83564,0,0,0,3.27343-5.11426,29.81251,29.81251,0,0,0,1.02246-8.48926v-9.81933h25.98047v7.978q0,18.00366-9.001,27.61719Q962.66731,242.971,944.2596,242.96835ZM933.826,169.52743h20.86621V158.276a39.25129,39.25129,0,0,0-1.02246-9.92138,10.03372,10.03372,0,0,0-3.27343-5.52344,10.18627,10.18627,0,0,0-6.3418-1.73877,9.07329,9.07329,0,0,0-5.93164,1.84082q-2.2544,1.84131-3.27344,6.13721a56.0315,56.0315,0,0,0-1.02344,12.27441Z"/><path class="cls-1" d="M1035.29182,242.96835q-13.70654,0-21.99121-5.2168a29.90019,29.90019,0,0,1-12.06933-14.93359q-3.78809-9.71412-3.78418-23.01416V164.20858q0-13.70288,3.78418-23.3208a29.245,29.245,0,0,1,12.17187-14.729q8.38623-5.11158,21.88867-5.11426,12.68262,0,20.76465,3.98877a24.40953,24.40953,0,0,1,11.7627,12.06982q3.68262,8.08374,3.68164,20.35449v9.81983h-26.18457V156.84432a40.619,40.619,0,0,0-.9209-9.71728,8.42759,8.42759,0,0,0-3.1709-5.11426,10.35,10.35,0,0,0-5.93262-1.53418,8.7596,8.7596,0,0,0-5.93164,1.94336q-2.25439,1.94677-3.17089,6.23926a59.50963,59.50963,0,0,0-.9209,11.86523V203.8951q0,11.45947,2.45507,15.44532,2.45508,3.98877,7.77344,3.98877,4.08984,0,6.23926-1.84082a9.27221,9.27221,0,0,0,2.86426-5.42139,45.22563,45.22563,0,0,0,.71582-8.69385V194.68954h26.18457V205.941q0,11.86671-3.78418,20.25244a25.65864,25.65864,0,0,1-11.86524,12.58106Q1047.76838,242.96469,1035.29182,242.96835Z"/><path class="cls-1" d="M1108.73128,242.96835a17.838,17.838,0,0,1-11.45606-3.58008,20.21241,20.21241,0,0,1-6.54687-9.61475,39.53431,39.53431,0,0,1-2.04492-12.78564V122.88534h27.82128v88.98828q0,5.32178,1.73829,8.28516,1.73583,2.96777,6.44433,2.9663a13.51429,13.51429,0,0,0,6.23926-1.63671,46.79355,46.79355,0,0,0,6.23926-3.88672V122.88534h27.82226V241.127h-27.82226V229.87557a54.99938,54.99938,0,0,1-13.0918,9.41016A33.079,33.079,0,0,1,1108.73128,242.96835Z"/><path class="cls-1" d="M1187.07893,241.127V122.88534h27.82227v18.207q6.13623-10.43335,12.27344-15.03613a22.00253,22.00253,0,0,1,13.502-4.603,19.93518,19.93518,0,0,1,2.14844.10254q.91992.10546,2.14746.30664v28.84473a36.56712,36.56712,0,0,0-5.4209-1.73877,25.67693,25.67693,0,0,0-6.03516-.71631,19.346,19.346,0,0,0-10.02343,2.65967,27.87268,27.87268,0,0,0-8.5918,8.79638v81.419Z"/><path class="cls-1" d="M1259.4969,104.065V80.94833h27.82129V104.065Zm0,137.062V122.88534h27.82129V241.127Z"/><path class="cls-1" d="M1343.77718,242.55917q-11.25294,0-17.69532-3.68262a20.1958,20.1958,0,0,1-9.10351-10.63721,46.35008,46.35008,0,0,1-2.66016-16.57031V141.297h-11.86426V122.88534h11.86426V87.49471h28.02637v35.39063h18.002V141.297h-18.002v67.917q0,6.137,2.65918,8.69434,2.65722,2.56055,7.97851,2.55713,2.24854,0,4.39844-.20459,2.14746-.20142,4.19336-.40918V241.127q-3.48046.40722-8.08008.92041A88.60724,88.60724,0,0,1,1343.77718,242.55917Z"/><path class="cls-1" d="M1377.73323,273.24471V253.19686a67.65386,67.65386,0,0,0,11.66016-.81836q4.49706-.82031,6.54687-2.86425a7.7544,7.7544,0,0,0,2.04492-5.728,41.94846,41.94846,0,0,0-1.3291-8.38721q-1.333-5.72461-2.96679-12.47851l-25.98047-100.03516h27.0039l15.34278,77.94141,13.29687-77.94141h26.79883L1422.534,245.83212q-2.25293,10.43334-7.56933,16.36572a29.66584,29.66584,0,0,1-13.29688,8.48974,61.16032,61.16032,0,0,1-18.61621,2.55713Z"/><polygon class="cls-1" points="264.907 221.188 155.788 284.188 46.669 221.188 46.669 95.188 155.788 32.188 264.907 95.188 264.907 221.188"/><path class="cls-2" d="M153.13387,47.438l35.10668,20.26892-.10473.1814L183.554,75.82418l7.93579,4.58191,13.49109,7.78919,7.936,4.5819,4.58178-7.93591.10486-.18164,31.443,18.15357v38.26965H239.885v33.90552h9.16162v38.57531l-28.32629,16.35413-.05041-.0874-4.58179-7.93592-7.93591,4.58179-13.49109,7.78906-7.9361,4.58179,4.582,7.936.05042.08728-38.22364,22.06848L114.87032,246.8475l.03723-.06433,4.58185-7.936-7.936-4.58179-13.49109-7.78906-7.93585-4.58179-4.58185,7.9358-.03717.06445L57.221,213.56356V174.98837H66.5287V141.08285H57.22108V102.8132L89.0771,84.421l.07318.12671,4.58185,7.93592,7.93591-4.58179,13.491-7.78906,7.93585-4.58179-4.58178-7.93591-.07312-.12671L153.13387,47.438m0-10.5813L105.92232,64.11422l4.6549,8.06262-13.491,7.78907-4.655-8.06263L48.05745,97.52255v52.724h9.30762v15.57825H48.05745l-.00006,53.02942,40.80408,23.55823,4.619-8.00025,13.49109,7.78907-4.619,8.00036,50.78119,29.31848,50.74146-29.29553-4.63233-8.02331,13.49109-7.78907,4.63233,8.02332,40.84387-23.58118V165.82479h-9.1615V150.24654h9.1615v-52.724L214.24947,72.14181l-4.68665,8.11755-13.49109-7.78918,4.68665-8.11743-47.62451-27.4961Z"/><path class="cls-3" d="M64.628,105.73373c1.60584-.91043,3.21783-1.81019,4.81658-2.7329Q98.86092,86.02334,128.27389,69.04q13.38779-7.72886,26.77054-15.46641a1.0079,1.0079,0,0,1,1.17483-.00972q24.71958,14.295,49.456,28.56088,20.09385,11.59872,40.1937,23.187a1.33932,1.33932,0,0,1,.79809,1.34549q-.03207,51.7353-.00506,103.47062a1.13661,1.13661,0,0,1-.6464,1.15483q-36.60784,21.10648-73.2,42.24023-8.29863,4.79046-16.59569,9.58367a4.44414,4.44414,0,0,0-.426.317H155.464c-.51834-.32723-1.0261-.67277-1.55652-.97907Q109.54,236.82288,65.16754,211.20977a5.39367,5.39367,0,0,0-.53952-.23949ZM73.81044,158.353v21.43934q0,12.58993-.009,25.17985a.87824.87824,0,0,0,.51488.90524c1.14266.61806,2.25764,1.28731,3.38312,1.9371q38.68713,22.33545,77.36839,44.681a.97.97,0,0,0,1.13288.0132q17.1321-9.91848,34.28113-19.80763,23.25507-13.42592,46.5154-26.84268a.84852.84852,0,0,0,.4973-.85341q-.0175-46.64871-.00069-93.29742a.89417.89417,0,0,0-.51829-.89954q-6.47988-3.71237-12.94078-7.45788-33.93122-19.59032-67.8572-39.18963a.93606.93606,0,0,0-1.085.00875Q114.797,87.45339,74.4817,110.70323a1.17817,1.17817,0,0,0-.68558,1.1935Q73.8232,135.12483,73.81044,158.353Z"/><path class="cls-4" d="M159.73755,190.92293H153.1338l3.26776-22.266Zm51.4189-33.94182v29.13721a40.54927,40.54927,0,0,1-40.79733,40.79736H141.21663a40.54927,40.54927,0,0,1-40.79732-40.79736V156.98111A11.692,11.692,0,0,1,112.07943,145.321h87.4169A11.692,11.692,0,0,1,211.15645,156.98111Zm-37.93871,52.94-10.62157-55.15878H150.13876l-10.695,55.15878h10.5586l2.10859-12.1217h8.71756l1.97221,12.1217Zm7.1733,2.25277H126.65191V148.87332H180.391Z"/><path class="cls-2" d="M193.66886,119.09485v20.39867H182.014V119.09485a26.22612,26.22612,0,1,0-52.45223,0v20.39867H117.90689V119.09485a37.881,37.881,0,1,1,75.762,0Z"/></svg>