<svg id="Layer_1" data-name="Layer 1" xmlns="http://www.w3.org/2000/svg" xmlns:xlink="http://www.w3.org/1999/xlink" viewBox="0 0 255 255"><defs><style>.cls-1{fill:#282d3c;}.cls-2{fill:#fff;}.cls-3{fill:url(#linear-gradient);}.cls-4{fill:url(#linear-gradient-2);}</style><linearGradient id="linear-gradient" x1="55.47629" y1="55.90918" x2="198.98905" y2="199.42195" gradientUnits="userSpaceOnUse"><stop offset="0.28571" stop-color="#78bedb"/><stop offset="0.71693" stop-color="#447897"/></linearGradient><linearGradient id="linear-gradient-2" x1="72.13143" y1="155.42991" x2="182.86857" y2="155.42991" xlink:href="#linear-gradient"/></defs><polygon class="cls-1" points="236.619 190.5 127.5 253.5 18.381 190.5 18.381 64.5 127.5 1.5 236.619 64.5 236.619 190.5"/><path class="cls-2" d="M124.846,16.74964l35.10669,20.2688-.10474.18164-4.5819,7.93579,7.936,4.582L176.69318,57.507l7.93579,4.58179,4.58191-7.936.10486-.18139,31.443,18.15332v38.27H211.597v33.90527h9.16174v38.5752l-28.32617,16.35424-.05054-.0874-4.58178-7.936-7.93592,4.58178-13.49109,7.78907-7.936,4.582,4.58191,7.93579.05041.08765-38.22363,22.06811L86.58252,216.15906l.037-.06421,4.582-7.936-7.93609-4.582-13.49115-7.78907-7.93592-4.58178-4.58178,7.936-.03717.06421-28.28632-16.331v-38.5752h9.30768V110.39466H28.93317v-38.27L60.78925,53.73279l.07312.12647,4.58185,7.93579,7.93585-4.58154,13.49109-7.78907,7.936-4.582-4.58185-7.93579-.073-.12671L124.846,16.74964m0-10.5813L77.6344,33.42591l4.655,8.0625L68.79828,49.27747l-4.655-8.0625L19.7696,66.83411l-.00007,52.72412h9.30768v15.57813H19.76953V188.1659L60.57361,211.724l4.619-8.00024,13.49115,7.78906-4.61908,8.00025,50.78125,29.3186,50.74145-29.29541-4.63232-8.02344,13.49109-7.78906,4.63232,8.02344,40.84388-23.5813V135.13636h-9.16163V119.55823h9.16163V66.83411L185.96161,41.4535,181.275,49.57093l-13.49109-7.78907,4.68664-8.11743L124.846,6.16834Z"/><path class="cls-3" d="M36.34015,75.04532c1.60583-.91042,3.21782-1.81019,4.81657-2.7329Q70.573,55.33494,99.986,38.35162q13.3878-7.72884,26.77055-15.4664a1.0079,1.0079,0,0,1,1.17483-.00973q24.71957,14.295,49.456,28.56089,20.09384,11.5987,40.19369,23.187a1.33932,1.33932,0,0,1,.79809,1.34549q-.03207,51.7353-.00506,103.47062a1.13658,1.13658,0,0,1-.6464,1.15483q-36.60784,21.10648-73.2,42.24023-8.29863,4.79047-16.59569,9.58367a4.44582,4.44582,0,0,0-.426.317h-.32991c-.51834-.32722-1.0261-.67277-1.55652-.97907q-44.3675-25.62165-88.73993-51.23477a5.39451,5.39451,0,0,0-.53951-.23949Zm9.18241,52.61927q0,10.71967,0,21.43935,0,12.58993-.009,25.17984a.87822.87822,0,0,0,.51488.90524c1.14267.61806,2.25764,1.28731,3.38312,1.9371q38.68713,22.33547,77.36839,44.681a.97.97,0,0,0,1.13288.01319q17.1321-9.91848,34.28114-19.80763Q185.449,188.58682,208.70934,175.17a.84852.84852,0,0,0,.4973-.85341q-.0175-46.64871-.00068-93.29742a.89418.89418,0,0,0-.5183-.89953q-6.47986-3.71238-12.94078-7.45788-33.9312-19.59031-67.8572-39.18964a.93606.93606,0,0,0-1.085.00876Q86.50911,56.765,46.19382,80.01482a1.17818,1.17818,0,0,0-.68558,1.1935Q45.53533,104.43644,45.52256,127.66459Z"/><path class="cls-4" d="M131.44967,160.23452h-6.60375l3.26776-22.26594Zm51.4189-33.94181v29.1372a40.54927,40.54927,0,0,1-40.79733,40.79736H112.92876a40.54927,40.54927,0,0,1-40.79733-40.79736v-29.1372a11.692,11.692,0,0,1,11.66012-11.66016h87.4169A11.692,11.692,0,0,1,182.86857,126.29271Zm-37.9387,52.94L134.30829,124.074H121.85088l-10.695,55.15878h10.5586l2.10859-12.1217h8.71756l1.97221,12.1217Zm7.17329,2.25277H98.364V118.18492h53.73913Z"/><path class="cls-2" d="M165.381,88.40644v20.39868H153.72611V88.40644a26.22611,26.22611,0,1,0-52.45222,0v20.39868H89.619V88.40644a37.881,37.881,0,1,1,75.762,0Z"/></svg>